<?xml version="1.0" encoding="utf-8"?>
<!-- Generator: Adobe Illustrator 16.0.0, SVG Export Plug-In . SVG Version: 6.00 Build 0)  -->
<!DOCTYPE svg PUBLIC "-//W3C//DTD SVG 1.1//EN" "http://www.w3.org/Graphics/SVG/1.1/DTD/svg11.dtd">
<svg version="1.1" id="Layer_1" xmlns="http://www.w3.org/2000/svg" xmlns:xlink="http://www.w3.org/1999/xlink" x="0px" y="0px"
	 width="45px" height="45px" viewBox="0 0 45 45" enable-background="new 0 0 45 45" xml:space="preserve">
<path fill="none" d="M17.269,22.432C6.116,25.193,3.522,37,3.251,38.415c0.011,0.326,0.102,0.904,0.873,0.936H41l0.032,1.351v-1.351
	c0.575-0.003,0.697-0.463,0.715-0.911c-0.357-1.515-3.406-12.956-14.197-15.897c-1.498,0.831-3.219,1.308-5.05,1.308
	C20.593,23.85,18.81,23.328,17.269,22.432z"/>
<path fill="#060001" d="M44.42,38.018C44.387,37.86,41.462,24.886,30.1,20.55c-0.741,0.787-1.598,1.463-2.55,1.992
	c10.791,2.941,13.84,14.383,14.197,15.897c-0.018,0.448-0.14,0.908-0.715,0.911v1.351L41,39.351H4.125
	c-0.771-0.031-0.862-0.609-0.873-0.936C3.522,37,6.116,25.193,17.269,22.432c-0.947-0.551-1.797-1.246-2.526-2.055
	C3.075,24.544,0.598,37.908,0.57,38.068c-0.013,0.076-0.02,0.153-0.02,0.231c0,2.752,2.123,3.75,3.55,3.75l36.836-0.001
	c0.021,0.001,0.075,0.002,0.096,0.002c0.305,0,1.097-0.054,1.863-0.547c0.709-0.455,1.554-1.381,1.554-3.204
	C44.449,38.205,44.439,38.11,44.42,38.018z"/>
<path fill="#060001" d="M22.5,2.95c-5.762,0-10.45,4.688-10.45,10.45c0,2.683,1.025,5.125,2.693,6.977
	c0.729,0.81,1.579,1.504,2.526,2.055c1.541,0.896,3.324,1.417,5.231,1.417c1.831,0,3.552-0.477,5.05-1.308
	c0.952-0.528,1.809-1.205,2.55-1.992c1.762-1.872,2.85-4.383,2.85-7.15C32.949,7.638,28.262,2.95,22.5,2.95z M27.063,19.65
	c-1.281,0.938-2.855,1.5-4.563,1.5c-1.763,0-3.385-0.598-4.688-1.593c-1.856-1.417-3.062-3.646-3.062-6.157
	c0-4.273,3.477-7.75,7.75-7.75s7.75,3.477,7.75,7.75C30.25,15.967,28.99,18.239,27.063,19.65z"/>
</svg>
